<?xml version="1.0" encoding="iso-8859-1"?>
<!-- Generator: Adobe Illustrator 19.0.0, SVG Export Plug-In . SVG Version: 6.00 Build 0)  -->
<svg version="1.1" id="Capa_1" xmlns="http://www.w3.org/2000/svg" xmlns:xlink="http://www.w3.org/1999/xlink" x="0px" y="0px"
	 viewBox="0 0 54 54" style="enable-background:new 0 0 54 54;" xml:space="preserve">
<g>
	<path d="M39,0H15c-0.552,0-1,0.448-1,1v40c0,0.265,0.106,0.52,0.293,0.707l12,12C26.488,53.902,26.744,54,27,54
		s0.512-0.098,0.707-0.293l12-12C39.895,41.52,40,41.265,40,41V1C40,0.448,39.552,0,39,0z M38,40.586l-11,11l-11-11V2h10v13.243
		l-3.95-3.95c-0.391-0.391-1.023-0.391-1.414,0c-0.391,0.391-0.391,1.023,0,1.414l5.657,5.657c0.188,0.188,0.442,0.293,0.707,0.293
		c0.265,0,0.519-0.105,0.707-0.293l5.657-5.657c0.391-0.391,0.391-1.023,0-1.414c-0.391-0.391-1.023-0.391-1.414,0L28,15.243V2h10
		V40.586z"/>
</g>
<g>
</g>
<g>
</g>
<g>
</g>
<g>
</g>
<g>
</g>
<g>
</g>
<g>
</g>
<g>
</g>
<g>
</g>
<g>
</g>
<g>
</g>
<g>
</g>
<g>
</g>
<g>
</g>
<g>
</g>
</svg>
